<svg xmlns="http://www.w3.org/2000/svg" viewBox="0 0 616 851" role="img" aria-label="Skomlin Press"><g transform="translate(-217.0 -22.0)"><path fill="#8B1A1A" fill-rule="evenodd" d="M509.6 859.4C507.5 857.0 505.0 855.0 504.1 855.0C503.2 855.0 500.4 853.0 498.0 850.5C495.6 848.0 492.9 846.0 492.0 846.0C491.1 846.0 489.1 844.6 487.5 843.0C485.9 841.4 483.9 840.0 482.9 840.0C482.0 840.0 480.7 839.3 480.0 838.5C479.3 837.7 478.0 837.0 477.0 837.0C476.0 837.0 474.7 836.3 474.0 835.5C473.3 834.7 472.0 834.0 471.0 834.0C470.0 834.0 468.7 833.3 468.0 832.5C467.3 831.7 466.0 831.0 465.0 831.0C464.0 831.0 462.7 830.3 462.0 829.5C461.3 828.7 460.0 828.0 459.0 828.0C458.0 828.0 456.7 827.3 456.0 826.5C455.3 825.7 454.0 825.0 453.0 825.0C452.0 825.0 450.7 824.3 450.0 823.5C449.3 822.7 447.3 822.0 445.5 822.0C443.7 822.0 441.7 821.3 441.0 820.5C440.3 819.7 438.3 819.0 436.5 819.0C434.7 819.0 432.7 818.3 432.0 817.5C431.0 816.3 427.5 816.0 412.6 816.0L394.4 816.0L391.5 819.0C389.9 820.6 387.9 822.0 386.9 822.0C386.0 822.0 384.7 822.7 384.0 823.5C383.3 824.3 382.0 825.0 381.1 825.0C379.0 825.0 372.0 832.0 372.0 834.2C372.0 835.0 371.3 836.3 370.5 837.0C369.7 837.7 369.0 839.0 369.0 840.0C369.0 841.0 368.3 842.3 367.5 843.0C366.6 843.7 366.0 845.9 366.0 848.1C366.0 852.5 364.7 853.0 361.9 849.8C359.4 846.7 359.0 812.1 361.5 810.0C362.3 809.3 363.0 808.0 363.0 807.1C363.0 805.0 370.0 798.0 372.2 798.0C373.0 798.0 374.3 797.3 375.0 796.5C375.7 795.7 377.7 795.0 379.5 795.0C381.3 795.0 383.3 794.3 384.0 793.5C384.9 792.4 387.3 792.0 393.0 792.0C398.7 792.0 401.1 792.4 402.0 793.5C402.9 794.5 405.2 795.0 409.5 795.0C413.8 795.0 416.1 795.5 417.0 796.5C418.3 798.1 423.0 798.6 423.0 797.2C423.0 796.8 412.2 785.6 399.0 772.5C385.8 759.3 375.0 747.8 375.0 747.0C375.0 746.1 373.0 743.4 370.5 741.0C368.0 738.6 366.0 735.9 366.0 735.0C366.0 734.1 364.0 731.4 361.5 729.0C359.0 726.6 357.0 723.9 357.0 723.0C357.0 722.1 355.6 720.1 354.0 718.5C352.4 716.9 351.0 714.9 351.0 713.9C351.0 713.0 350.3 711.7 349.5 711.0C348.7 710.3 348.0 709.0 348.0 708.1C348.0 707.1 346.6 705.1 345.0 703.5C343.4 701.9 342.0 699.9 342.0 699.0C342.0 698.1 340.6 696.1 339.0 694.5C337.4 692.9 336.0 690.9 336.0 690.0C336.0 689.1 334.6 687.1 333.0 685.5C331.4 683.9 330.0 681.9 330.0 680.9C330.0 680.0 329.3 678.7 328.5 678.0C327.7 677.3 327.0 676.0 327.0 675.0C327.0 674.0 326.3 672.7 325.5 672.0C324.7 671.3 324.0 670.0 324.0 669.1C324.0 668.1 322.6 666.1 321.0 664.5C319.4 662.9 318.0 660.9 318.0 659.9C318.0 659.0 317.3 657.7 316.5 657.0C315.7 656.3 315.0 655.0 315.0 654.0C315.0 653.0 314.3 651.7 313.5 651.0C312.7 650.3 312.0 649.0 312.0 648.0C312.0 647.0 311.3 645.7 310.5 645.0C309.7 644.3 309.0 643.0 309.0 642.0C309.0 641.0 308.3 639.7 307.5 639.0C306.7 638.3 306.0 637.0 306.0 636.1C306.0 635.1 304.6 633.1 303.0 631.5C300.9 629.5 300.0 627.7 300.0 625.4C300.0 623.7 299.3 621.7 298.5 621.0C297.7 620.3 297.0 619.0 297.0 618.1C297.0 617.1 295.6 615.1 294.0 613.5C292.4 611.9 291.0 609.9 291.0 608.9C291.0 608.0 290.3 606.7 289.5 606.0C288.7 605.3 288.0 603.7 288.0 602.4C288.0 600.4 287.5 600.0 285.0 600.0C282.3 600.0 282.0 599.7 282.0 597.0C282.0 594.5 281.6 594.0 279.7 594.0C278.4 594.0 276.1 592.6 274.5 591.0C272.9 589.4 270.9 588.0 269.9 588.0C269.0 588.0 267.7 587.3 267.0 586.5C266.3 585.7 265.0 585.0 264.0 585.0C263.0 585.0 261.7 584.3 261.0 583.5C260.2 582.6 258.0 582.0 255.0 582.0C252.0 582.0 249.8 581.4 249.0 580.5C248.1 579.4 245.6 579.0 239.4 579.0L231.0 579.0L231.0 582.0C231.0 585.6 229.5 585.8 226.9 582.8C225.4 580.9 225.1 578.8 225.0 571.5L225.0 562.4L228.8 558.7C231.5 556.1 233.5 555.0 235.7 555.0C237.4 555.0 239.3 554.3 240.0 553.5C240.7 552.7 242.7 552.0 244.5 552.0C246.3 552.0 248.3 551.3 249.0 550.5C249.7 549.7 251.0 549.0 251.9 549.0C252.9 549.0 254.9 547.6 256.5 546.0C258.1 544.4 260.1 543.0 261.1 543.0C262.0 543.0 263.3 542.4 264.0 541.6C264.6 540.8 266.8 540.0 268.8 539.8C271.7 539.6 272.5 539.0 273.0 537.0C273.6 534.5 273.7 534.5 286.2 534.2C295.8 534.0 299.1 533.6 300.0 532.5C301.8 530.3 325.2 530.3 327.0 532.5C328.0 533.7 330.8 534.0 340.5 534.0C350.2 534.0 353.0 534.3 354.0 535.5C354.9 536.5 357.2 537.0 361.5 537.0C365.8 537.0 368.1 537.5 369.0 538.5C369.9 539.5 372.2 540.0 376.5 540.0C380.8 540.0 383.1 540.5 384.0 541.5C384.7 542.4 386.9 543.0 389.1 543.0C391.9 543.0 393.0 543.4 393.0 544.5C393.0 545.4 392.1 546.0 390.6 546.0C389.3 546.0 387.7 546.7 387.0 547.5C386.3 548.4 383.5 549.0 379.2 549.2C370.1 549.6 369.9 551.4 378.0 559.5C381.3 562.8 384.0 566.1 384.0 567.0C384.0 569.0 409.1 594.0 411.1 594.0C412.0 594.0 413.3 594.7 414.0 595.5C414.7 596.3 416.0 597.0 416.9 597.0C417.9 597.0 419.9 598.4 421.5 600.0C423.1 601.6 425.1 603.0 426.1 603.0C427.0 603.0 428.3 603.7 429.0 604.5C429.7 605.3 431.7 606.0 433.5 606.0C435.3 606.0 437.3 606.7 438.0 607.5C438.7 608.3 440.7 609.0 442.5 609.0C444.3 609.0 446.3 609.7 447.0 610.5C448.0 611.6 450.6 612.0 458.1 612.0C466.2 612.0 468.0 612.3 468.0 613.5C468.0 614.8 465.9 615.0 455.1 615.0C444.9 615.0 442.0 614.7 441.0 613.5C440.1 612.5 437.8 612.0 433.5 612.0C429.2 612.0 426.9 611.5 426.0 610.5C425.3 609.7 424.0 609.0 423.0 609.0C422.0 609.0 420.7 608.3 420.0 607.5C419.3 606.7 417.3 606.0 415.6 606.0C413.3 606.0 411.5 605.1 409.5 603.0C407.9 601.4 405.9 600.0 404.9 600.0C404.0 600.0 402.7 599.3 402.0 598.5C401.3 597.7 400.0 597.0 399.1 597.0C398.2 597.0 394.1 593.6 390.0 589.5C385.9 585.4 381.9 582.0 381.0 582.0C379.0 582.0 366.0 568.9 366.0 566.9C366.0 566.0 362.6 562.1 358.5 558.1C350.2 550.0 349.7 549.0 354.0 549.0C357.6 549.0 357.8 547.5 354.8 544.9C353.1 543.6 350.9 543.1 346.4 543.0C342.2 543.0 339.9 542.5 339.0 541.5C337.2 539.3 286.9 539.3 285.0 541.4C284.4 542.2 282.9 543.0 281.7 543.2C280.1 543.4 279.5 544.2 279.5 546.0C279.5 548.3 279.9 548.5 285.2 548.8C292.0 549.2 292.2 549.8 287.2 554.5C280.8 560.4 271.1 558.8 269.8 551.5C269.4 549.0 265.8 548.4 264.0 550.5C263.3 551.3 262.0 552.0 261.0 552.0C260.0 552.0 258.7 552.7 258.0 553.5C257.3 554.3 255.3 555.0 253.6 555.0C250.5 555.1 246.0 557.9 246.0 559.9C246.0 560.5 247.1 561.0 248.4 561.0C249.7 561.0 251.3 561.7 252.0 562.5C253.0 563.7 255.7 564.0 264.0 564.0C272.3 564.0 275.0 564.3 276.0 565.5C276.8 566.5 279.1 567.0 282.7 567.0C290.3 567.0 289.4 569.4 281.7 569.8C277.5 570.0 276.0 570.5 276.0 571.5C276.0 572.7 277.7 573.0 284.4 573.0C290.5 573.0 293.1 573.4 294.0 574.5C294.7 575.3 297.4 576.0 300.3 576.2L305.5 576.5L305.8 580.2C306.0 582.2 306.8 584.4 307.6 585.0C308.5 585.9 309.0 588.3 309.0 592.5C309.0 596.8 309.5 599.1 310.5 600.0C311.3 600.7 312.0 602.7 312.0 604.5C312.0 606.3 312.7 608.3 313.5 609.0C314.3 609.7 315.0 611.0 315.0 611.9C315.0 612.9 316.4 614.9 318.0 616.5C319.6 618.1 321.0 620.1 321.0 621.0C321.0 623.0 331.1 633.0 333.2 633.0C334.0 633.0 335.3 633.7 336.0 634.5C336.9 635.5 339.2 636.0 343.5 636.0C347.8 636.0 350.1 635.5 351.0 634.5C351.7 633.7 353.0 633.0 353.9 633.0C356.9 633.0 363.0 625.8 363.0 622.2C363.0 620.2 363.6 618.7 364.5 618.4C365.3 618.0 366.0 617.2 366.0 616.4C366.0 615.6 365.3 615.0 364.5 615.0C362.6 615.0 362.6 612.4 364.5 611.6C365.6 611.2 366.0 609.6 366.0 606.2C366.0 603.0 365.5 600.8 364.5 600.0C363.5 599.1 363.0 596.8 363.0 592.5C363.0 588.2 362.5 585.9 361.5 585.0C360.7 584.3 360.0 582.3 360.0 580.5C360.0 578.7 359.3 576.7 358.5 576.0C356.8 574.6 356.5 570.0 358.1 570.0C359.6 570.0 362.9 574.2 363.0 576.1C363.0 576.9 364.4 578.9 366.0 580.5C367.6 582.1 369.0 584.2 369.0 585.3C369.0 586.3 370.4 588.3 372.0 589.7C373.6 591.0 375.0 593.0 375.0 593.9C375.0 594.9 376.4 596.9 378.0 598.5C379.6 600.1 381.0 602.1 381.0 603.0C381.0 605.3 385.2 609.0 387.8 609.0C389.4 609.0 390.0 609.6 390.0 611.3C390.0 614.2 393.9 618.0 396.8 618.0C398.6 618.0 399.0 618.6 399.0 621.0C399.0 623.5 399.4 624.0 401.3 624.0C402.6 624.0 404.9 625.4 406.5 627.0C408.5 629.1 410.3 630.0 412.6 630.0C414.3 630.0 416.3 630.7 417.0 631.5C417.7 632.3 419.0 633.0 420.0 633.0C421.0 633.0 422.3 633.7 423.0 634.5C423.7 635.4 426.5 636.0 430.8 636.2C437.2 636.5 437.5 636.6 437.5 639.0C437.5 640.8 436.9 641.6 435.3 641.8C434.1 642.0 432.6 642.8 432.0 643.6C431.1 644.5 428.7 645.0 424.5 645.0C420.2 645.0 417.9 645.5 417.0 646.5C416.3 647.3 414.3 648.0 412.6 648.0C410.3 648.0 408.5 648.9 406.5 651.0C404.9 652.6 402.6 654.0 401.3 654.0C399.6 654.0 399.0 654.6 399.0 656.3C399.0 657.6 397.6 659.9 396.0 661.5C394.4 663.1 393.0 665.1 393.0 666.1C393.0 667.0 392.3 668.3 391.5 669.0C390.5 669.9 390.0 672.2 390.0 676.5C390.0 680.8 389.5 683.1 388.5 684.0C387.4 684.9 387.0 687.5 387.0 694.5C387.0 701.5 387.4 704.1 388.5 705.0C389.6 705.9 390.0 708.3 390.0 714.0C390.0 719.7 390.4 722.1 391.5 723.0C392.3 723.7 393.0 725.7 393.0 727.5C393.0 729.3 393.7 731.3 394.5 732.0C395.3 732.7 396.0 734.7 396.0 736.5C396.0 738.3 396.7 740.3 397.5 741.0C398.3 741.7 399.0 743.0 399.0 744.0C399.0 745.0 399.7 746.3 400.5 747.0C401.3 747.7 402.0 749.0 402.0 750.0C402.0 751.0 402.7 752.3 403.5 753.0C404.3 753.7 405.0 755.0 405.0 755.9C405.0 756.9 406.4 758.9 408.0 760.5C409.6 762.1 411.0 764.1 411.0 765.0C411.0 765.9 413.0 768.6 415.5 771.0C418.0 773.4 420.0 776.1 420.0 777.0C420.0 779.0 439.0 798.0 441.1 798.0C441.9 798.0 444.6 800.0 447.0 802.5C449.4 805.0 452.2 807.0 453.1 807.0C454.0 807.0 455.3 807.7 456.0 808.5C456.7 809.3 458.0 810.0 459.0 810.0C460.0 810.0 461.3 810.7 462.0 811.5C462.7 812.3 464.0 813.0 465.0 813.0C466.0 813.0 467.3 813.7 468.0 814.5C468.7 815.3 470.7 816.0 472.5 816.0C474.3 816.0 476.3 816.7 477.0 817.5C477.7 818.3 479.7 819.0 481.5 819.0C483.3 819.0 485.3 819.7 486.0 820.5C486.8 821.4 489.0 822.0 492.0 822.0C495.0 822.0 497.2 822.6 498.0 823.5C499.0 824.6 501.6 825.0 509.1 825.0C517.2 825.0 519.0 825.3 519.0 826.5C519.0 827.8 516.9 828.0 506.1 828.0C495.9 828.0 493.0 827.7 492.0 826.5C491.2 825.5 489.0 825.0 485.8 825.0C482.4 825.0 480.8 824.6 480.4 823.5C479.7 821.8 477.0 821.4 477.0 823.1C477.0 824.6 484.3 831.0 486.0 831.0C486.9 831.0 490.9 834.4 495.0 838.5C499.9 843.5 503.2 846.0 504.7 846.0C506.4 846.0 507.0 846.6 507.0 848.3C507.0 849.7 508.8 852.3 511.5 855.0C514.2 857.7 516.0 860.3 516.0 861.7C516.0 865.1 514.0 864.4 509.6 859.4ZM624.0 742.5C623.2 741.6 621.0 741.0 618.0 741.0C615.0 741.0 612.8 740.4 612.0 739.5C611.3 738.7 609.3 738.0 607.5 738.0C605.7 738.0 603.7 737.3 603.0 736.5C602.3 735.7 601.0 735.0 600.0 735.0C599.0 735.0 597.7 734.3 597.0 733.5C596.3 732.7 595.0 732.0 594.1 732.0C593.2 732.0 590.4 730.0 588.0 727.5C585.6 725.0 582.9 723.0 582.0 723.0C580.0 723.0 570.0 712.9 570.0 710.9C570.0 710.1 568.6 708.1 567.0 706.5C565.4 704.9 564.0 702.9 564.0 702.1C564.0 701.2 562.6 699.2 561.0 697.6C557.6 694.3 556.6 687.0 559.5 687.0C560.4 687.0 561.0 687.9 561.0 689.4C561.0 690.7 561.7 692.3 562.5 693.0C563.3 693.7 564.0 694.9 564.0 695.8C564.0 697.9 589.0 723.0 591.0 723.0C591.9 723.0 593.9 724.4 595.5 726.0C597.5 728.1 599.3 729.0 601.6 729.0C603.3 729.0 605.3 729.7 606.0 730.5C606.9 731.5 609.2 732.0 613.5 732.0C617.8 732.0 620.1 732.5 621.0 733.5C622.6 735.5 630.0 735.6 630.0 733.6C630.0 732.8 629.3 732.0 628.5 731.6C626.5 730.9 626.4 723.0 628.4 723.0C629.2 723.0 630.0 723.7 630.4 724.5C630.7 725.3 631.8 726.0 632.8 726.0C633.9 726.0 635.3 726.7 636.0 727.5C636.7 728.3 638.0 729.0 639.0 729.0C640.0 729.0 641.3 729.7 642.0 730.5C642.7 731.3 644.0 732.0 645.0 732.0C646.0 732.0 647.3 732.7 648.0 733.5C648.7 734.3 650.7 735.0 652.5 735.0C654.3 735.0 656.3 735.7 657.0 736.5C657.8 737.5 660.1 738.0 663.6 738.0C667.7 738.0 669.0 738.4 669.0 739.5C669.0 740.4 668.1 741.0 666.6 741.0C665.3 741.0 663.7 741.7 663.0 742.5C662.0 743.7 658.5 744.0 643.5 744.0C628.5 744.0 625.0 743.7 624.0 742.5ZM477.0 726.1C477.0 724.5 477.6 723.0 478.5 722.6C479.4 722.3 480.0 720.8 480.0 718.7C480.0 716.8 480.7 714.7 481.5 714.0C482.4 713.2 483.0 711.0 483.0 708.0C483.0 705.0 483.6 702.8 484.5 702.0C485.7 701.0 486.0 697.2 486.0 679.5C486.0 661.8 485.7 658.0 484.5 657.0C483.6 656.2 483.0 654.0 483.0 651.0C483.0 648.0 482.4 645.8 481.5 645.0C480.7 644.3 480.0 642.7 480.0 641.5C480.0 640.2 479.3 638.9 478.4 638.6C475.4 637.4 477.1 633.5 480.9 633.2C483.9 632.9 485.0 633.6 490.5 639.0C500.6 649.0 500.5 649.4 500.8 618.4C501.0 596.0 500.8 592.1 499.5 591.0C498.5 590.1 498.0 587.9 498.0 583.5C498.0 579.2 497.5 576.9 496.5 576.0C495.6 575.2 495.0 573.0 495.0 570.0C495.0 567.0 494.4 564.8 493.5 564.0C492.6 563.2 492.0 561.0 492.0 558.0C492.0 555.0 491.4 552.8 490.5 552.0C489.7 551.3 489.0 549.3 489.0 547.5C489.0 545.7 488.3 543.7 487.5 543.0C486.7 542.3 486.0 540.3 486.0 538.5C486.0 536.7 485.3 534.7 484.5 534.0C483.7 533.3 483.0 531.3 483.0 529.5C483.0 527.7 482.3 525.7 481.5 525.0C480.7 524.3 480.0 522.3 480.0 520.5C480.0 518.7 479.3 516.7 478.5 516.0C477.7 515.3 477.0 514.0 477.0 513.0C477.0 512.0 476.3 510.7 475.5 510.0C474.7 509.3 474.0 508.0 474.0 507.0C474.0 506.0 473.3 504.7 472.5 504.0C471.7 503.3 471.0 501.3 471.0 499.5C471.0 497.7 470.3 495.7 469.5 495.0C468.7 494.3 468.0 493.0 468.0 492.0C468.0 491.0 467.3 489.7 466.5 489.0C465.7 488.3 465.0 487.0 465.0 486.0C465.0 485.0 464.3 483.7 463.5 483.0C462.7 482.3 462.0 481.0 462.0 480.0C462.0 479.0 461.3 477.7 460.5 477.0C459.7 476.3 459.0 475.0 459.0 474.0C459.0 473.0 458.3 471.7 457.5 471.0C456.7 470.3 456.0 469.0 456.0 468.0C456.0 467.0 455.3 465.7 454.5 465.0C453.7 464.3 453.0 463.0 453.0 462.0C453.0 461.0 452.3 459.7 451.5 459.0C450.7 458.3 450.0 457.0 450.0 456.0C450.0 455.0 449.3 453.7 448.5 453.0C447.7 452.3 447.0 451.0 447.0 450.1C447.0 449.1 445.6 447.1 444.0 445.5C442.4 443.9 441.0 441.9 441.0 440.9C441.0 440.0 440.3 438.7 439.5 438.0C438.7 437.3 438.0 436.0 438.0 435.1C438.0 434.1 436.6 432.1 435.0 430.5C433.4 428.9 432.0 426.9 432.0 426.0C432.0 425.1 430.7 423.1 429.0 421.5C427.4 419.9 426.0 417.9 426.0 416.9C426.0 416.0 425.3 414.7 424.5 414.0C423.7 413.3 423.0 412.0 423.0 411.1C423.0 410.2 420.0 406.4 416.2 402.7C409.9 396.4 409.2 396.0 404.9 396.0C401.0 396.0 399.9 396.5 396.7 399.8C392.8 403.8 392.0 406.7 394.5 407.6C395.3 408.0 396.0 409.4 396.0 411.0C396.0 412.6 396.7 414.0 397.5 414.4C399.4 415.1 399.5 420.0 397.6 420.0C396.8 420.0 396.0 419.3 395.6 418.5C395.3 417.7 393.9 417.0 392.5 417.0C390.5 417.0 390.0 416.5 390.0 414.4C390.0 412.8 388.9 410.9 387.0 409.3C384.8 407.5 384.0 406.0 384.0 403.5C384.0 401.7 383.3 399.7 382.5 399.0C381.7 398.3 381.0 397.0 381.0 396.0C381.0 395.0 381.7 393.7 382.5 393.0C383.4 392.2 384.0 390.0 384.0 387.0C384.0 384.0 384.6 381.8 385.5 381.0C386.3 380.3 387.0 379.0 387.0 378.1C387.0 376.0 397.0 366.0 399.1 366.0C399.9 366.0 401.9 364.6 403.5 363.0C405.1 361.3 407.1 360.0 408.0 360.0C408.9 360.0 410.9 358.7 412.5 357.0C414.1 355.4 416.1 354.0 417.1 354.0C418.0 354.0 419.3 353.3 420.0 352.5C420.7 351.7 422.0 351.0 423.0 351.0C424.0 351.0 425.3 350.3 426.0 349.5C426.7 348.7 428.0 348.0 428.9 348.0C429.9 348.0 431.9 346.6 433.5 345.0C435.1 343.3 437.1 342.0 438.1 342.0C439.0 342.0 440.3 341.3 441.0 340.5C441.7 339.7 443.0 339.0 443.9 339.0C444.9 339.0 446.9 337.6 448.5 336.0C450.1 334.4 452.1 333.0 453.0 333.0C453.9 333.0 455.9 331.7 457.5 330.0C459.1 328.4 461.1 327.0 462.0 327.0C462.9 327.0 464.9 325.6 466.5 324.0C468.1 322.3 470.1 321.0 471.1 321.0C472.0 321.0 473.3 320.3 474.0 319.5C474.7 318.7 476.0 318.0 476.9 318.0C477.8 318.0 481.2 315.3 484.5 312.0C487.8 308.7 491.2 306.0 492.0 306.0C492.9 306.0 494.9 304.7 496.5 303.0C498.1 301.4 500.1 300.0 501.0 300.0C501.9 300.0 503.9 298.7 505.5 297.0C507.1 295.4 509.1 294.0 510.0 294.0C510.8 294.0 514.2 291.3 517.5 288.0C520.8 284.7 524.2 282.0 525.0 282.0C525.9 282.0 527.9 280.6 529.5 279.0C531.1 277.3 533.1 276.0 534.0 276.0C534.8 276.0 538.2 273.3 541.5 270.0C545.3 266.2 548.3 264.0 549.7 264.0C551.6 264.0 552.0 263.5 552.0 261.0C552.0 258.5 552.4 258.0 554.3 258.0C555.8 258.0 559.1 255.5 564.0 250.5C568.1 246.4 572.2 243.0 573.1 243.0C575.3 243.0 579.0 238.8 579.0 236.2C579.0 234.6 579.6 234.0 581.3 234.0C583.9 234.0 639.0 179.5 639.0 176.9C639.0 174.7 643.2 171.0 645.8 171.0C647.4 171.0 648.0 170.4 648.0 168.7C648.0 167.2 650.9 163.5 657.0 157.5C662.0 152.6 666.0 147.8 666.0 147.0C666.0 146.1 668.0 143.4 670.5 141.0C673.0 138.6 675.0 135.9 675.0 135.0C675.0 134.1 677.0 131.4 679.5 129.0C682.0 126.6 684.0 123.9 684.0 123.0C684.0 122.1 686.7 118.8 690.0 115.5C693.3 112.2 696.0 108.9 696.0 108.0C696.0 107.1 698.0 104.4 700.5 102.0C703.0 99.6 705.0 96.9 705.0 96.0C705.0 95.1 706.4 93.1 708.0 91.5C709.6 89.9 711.0 87.9 711.0 87.0C711.0 86.1 713.0 83.4 715.5 81.0C718.0 78.6 720.0 75.9 720.0 75.0C720.0 74.1 721.4 72.1 723.0 70.5C724.6 68.9 726.0 66.9 726.0 66.0C726.0 65.1 727.4 63.1 729.0 61.5C730.6 59.9 732.0 57.9 732.0 57.0C732.0 56.1 733.4 54.1 735.0 52.5C736.6 50.9 738.0 48.9 738.0 48.0C738.0 47.1 739.4 45.1 741.0 43.5C742.6 41.9 744.0 39.9 744.0 39.1C744.1 37.3 750.5 30.0 752.0 30.0C752.6 30.0 753.0 31.7 753.0 33.9C753.0 36.1 753.6 38.3 754.5 39.0C755.3 39.7 756.0 41.7 756.0 43.5C756.0 45.3 756.7 47.3 757.5 48.0C758.4 48.8 759.0 51.0 759.0 54.0C759.0 57.0 759.6 59.2 760.5 60.0C761.4 60.8 762.0 63.0 762.0 66.0C762.0 69.0 762.6 71.2 763.5 72.0C764.6 72.9 765.0 75.3 765.0 81.0C765.0 86.7 765.4 89.1 766.5 90.0C768.7 91.9 768.7 151.1 766.5 153.0C765.5 153.9 765.0 156.2 765.0 160.5C765.0 164.8 764.5 167.1 763.5 168.0C762.5 168.9 762.0 171.2 762.0 175.5C762.0 179.8 761.5 182.1 760.5 183.0C759.7 183.7 759.0 185.7 759.0 187.5C759.0 189.3 758.3 191.3 757.5 192.0C756.6 192.8 756.0 195.0 756.0 198.0C756.0 201.0 755.4 203.2 754.5 204.0C753.7 204.7 753.0 206.0 753.0 207.0C753.0 208.0 752.3 209.3 751.5 210.0C750.7 210.7 750.0 212.7 750.0 214.5C750.0 216.3 749.3 218.3 748.5 219.0C747.7 219.7 747.0 221.0 747.0 222.0C747.0 223.0 746.3 224.3 745.5 225.0C744.7 225.7 744.0 227.7 744.0 229.5C744.0 231.3 743.3 233.3 742.5 234.0C741.7 234.7 741.0 236.0 741.0 237.0C741.0 238.0 740.3 239.3 739.5 240.0C738.7 240.7 738.0 242.0 738.0 242.9C738.0 243.9 736.6 245.9 735.0 247.5C733.4 249.1 732.0 251.1 732.0 252.0C732.0 252.9 730.6 254.9 729.0 256.5C727.4 258.1 726.0 260.1 726.0 261.0C726.0 261.9 724.6 263.9 723.0 265.5C721.4 267.1 720.0 269.4 720.0 270.6C720.0 271.8 719.3 273.0 718.5 273.4C717.7 273.7 717.0 274.8 717.0 275.8C717.0 276.8 715.0 279.6 712.5 282.0C710.0 284.4 708.0 287.1 708.0 288.0C708.0 288.9 706.6 290.9 705.0 292.5C703.4 294.1 702.0 296.1 702.0 296.9C702.0 299.0 647.0 354.0 645.0 354.0C644.1 354.0 640.8 356.7 637.5 360.0C634.2 363.3 630.8 366.0 630.0 366.0C629.1 366.0 627.1 367.4 625.5 369.0C623.9 370.6 621.9 372.0 621.0 372.0C620.1 372.0 617.4 374.0 615.0 376.5C612.6 379.0 609.8 381.0 608.9 381.0C608.0 381.0 606.7 381.7 606.0 382.5C605.3 383.3 604.0 384.0 603.1 384.0C602.2 384.0 599.4 386.0 597.0 388.5C594.6 391.0 591.9 393.0 591.0 393.0C590.1 393.0 587.4 395.0 585.0 397.5C582.6 400.0 579.8 402.0 578.9 402.0C578.0 402.0 576.7 402.7 576.0 403.5C575.3 404.3 574.0 405.0 573.0 405.0C572.0 405.0 570.7 405.7 570.0 406.5C569.3 407.3 568.0 408.0 567.1 408.0C566.1 408.0 564.1 409.3 562.5 411.0C560.5 413.1 558.7 414.0 556.5 414.0C554.3 414.0 552.5 414.9 550.5 417.0C548.9 418.6 546.9 420.0 545.9 420.0C545.0 420.0 543.7 420.7 543.0 421.5C542.3 422.3 541.0 423.0 540.0 423.0C539.0 423.0 537.7 423.7 537.0 424.5C536.3 425.3 534.7 426.0 533.4 426.0C531.9 426.0 531.0 426.6 531.0 427.5C531.0 428.4 530.1 429.0 528.5 429.0C527.1 429.0 525.7 429.7 525.4 430.5C524.7 432.2 522.0 432.5 522.0 430.9C522.0 429.2 526.3 426.1 528.8 426.0C530.0 426.0 531.0 425.5 531.0 424.9C531.0 423.4 535.2 420.1 537.1 420.0C537.9 420.0 539.9 418.6 541.5 417.0C543.1 415.3 545.1 414.0 546.0 414.0C546.9 414.0 549.6 412.0 552.0 409.5C554.4 407.0 557.1 405.0 558.0 405.0C558.9 405.0 560.9 403.6 562.5 402.0C564.1 400.4 566.1 399.0 567.0 399.0C567.8 399.0 571.2 396.3 574.5 393.0C577.8 389.7 581.1 387.0 582.0 387.0C582.9 387.0 586.2 384.3 589.5 381.0C592.8 377.7 596.1 375.0 597.0 375.0C597.9 375.0 600.6 373.0 603.0 370.5C605.4 368.0 608.1 366.0 609.0 366.0C609.8 366.0 617.9 358.6 627.0 349.5C638.6 337.9 644.1 333.0 645.7 333.0C647.4 333.0 648.0 332.4 648.0 330.7C648.0 329.2 650.9 325.5 657.0 319.5C663.1 313.5 666.0 309.8 666.0 308.3C666.0 306.4 666.5 306.0 669.0 306.0C671.5 306.0 672.0 305.6 672.0 303.7C672.0 302.3 673.8 299.7 676.5 297.0C679.0 294.6 681.0 291.9 681.0 291.0C681.0 290.1 683.0 287.4 685.5 285.0C688.0 282.6 690.0 279.9 690.0 279.0C690.0 278.1 691.4 276.1 693.0 274.5C694.6 272.9 696.0 270.9 696.0 269.9C696.0 269.0 696.7 267.7 697.5 267.0C698.3 266.3 699.0 265.0 699.0 264.1C699.0 263.1 700.4 261.1 702.0 259.5C703.6 257.9 705.0 255.9 705.0 254.9C705.0 254.0 705.7 252.7 706.5 252.0C707.3 251.3 708.0 250.0 708.0 249.0C708.0 248.0 708.7 246.7 709.5 246.0C710.3 245.3 711.0 244.0 711.0 243.0C711.0 242.0 711.7 240.7 712.5 240.0C713.3 239.3 714.0 237.3 714.0 235.5C714.0 233.7 714.7 231.7 715.5 231.0C716.3 230.3 717.0 229.0 717.0 228.0C717.0 227.0 717.7 225.7 718.5 225.0C719.3 224.3 720.0 222.3 720.0 220.5C720.0 218.7 720.7 216.7 721.5 216.0C722.4 215.2 723.0 213.0 723.0 210.0C723.0 207.0 723.6 204.8 724.5 204.0C725.4 203.2 726.0 201.0 726.0 198.0C726.0 195.0 726.6 192.8 727.5 192.0C728.8 190.9 729.0 186.0 729.0 159.0C729.0 132.0 728.8 127.1 727.5 126.0C726.4 125.1 726.0 122.7 726.0 116.8C726.0 110.7 725.7 108.8 724.5 108.4C723.6 108.0 723.0 106.5 723.0 104.9C723.0 103.3 722.6 102.0 722.0 102.0C720.5 102.0 714.1 109.3 714.0 111.0C714.0 111.9 712.0 114.6 709.5 117.0C707.0 119.4 705.0 122.1 705.0 123.0C705.0 123.9 703.0 126.6 700.5 129.0C698.0 131.4 696.0 134.2 696.0 135.1C696.0 136.0 695.3 137.3 694.5 138.0C693.7 138.7 693.0 140.0 693.0 140.9C693.0 141.8 690.3 145.2 687.0 148.5C683.7 151.8 681.0 155.1 681.0 156.0C681.0 156.9 678.3 160.2 675.0 163.5C671.7 166.8 669.0 170.1 669.0 171.0C669.0 171.9 667.0 174.6 664.5 177.0C662.0 179.4 660.0 182.1 660.0 183.0C660.0 183.9 658.0 186.6 655.5 189.0C653.0 191.4 651.0 194.1 651.0 195.0C651.0 195.8 647.0 200.6 642.0 205.5C637.0 210.4 633.0 215.2 633.0 216.0C633.0 216.9 629.6 220.9 625.5 225.0C621.4 229.1 618.0 233.1 618.0 234.0C618.0 234.8 611.2 242.3 603.0 250.5C594.8 258.7 588.0 266.2 588.0 267.0C588.0 267.8 570.5 286.1 549.0 307.5C527.6 328.9 510.0 347.2 510.0 348.0C510.0 348.9 508.0 351.6 505.5 354.0C503.0 356.4 501.0 359.1 501.0 360.0C501.0 360.9 499.6 362.9 498.0 364.5C496.4 366.1 495.0 368.1 495.0 369.0C495.0 369.9 493.6 371.9 492.0 373.5C490.4 375.1 489.0 377.1 489.0 378.1C489.0 379.0 488.3 380.3 487.5 381.0C486.7 381.7 486.0 383.7 486.0 385.5C486.0 387.3 485.3 389.3 484.5 390.0C483.7 390.7 483.0 392.7 483.0 394.5C483.0 396.3 482.3 398.3 481.5 399.0C480.3 400.0 480.0 403.3 480.0 417.0C480.0 430.7 480.3 434.0 481.5 435.0C482.3 435.7 483.0 437.7 483.0 439.5C483.0 441.3 483.7 443.3 484.5 444.0C485.3 444.7 486.0 446.7 486.0 448.5C486.0 450.3 486.7 452.3 487.5 453.0C488.3 453.7 489.0 455.7 489.0 457.5C489.0 459.3 489.7 461.3 490.5 462.0C491.3 462.7 492.0 464.7 492.0 466.5C492.0 468.3 492.7 470.3 493.5 471.0C494.3 471.7 495.0 473.7 495.0 475.5C495.0 477.3 495.7 479.3 496.5 480.0C497.4 480.8 498.0 483.0 498.0 486.0C498.0 489.0 498.6 491.2 499.5 492.0C500.4 492.8 501.0 495.0 501.0 498.0C501.0 501.0 501.6 503.2 502.5 504.0C503.4 504.8 504.0 507.0 504.0 510.0C504.0 513.0 504.6 515.2 505.5 516.0C506.4 516.8 507.0 519.0 507.0 522.0C507.0 525.0 507.6 527.2 508.5 528.0C509.5 528.9 510.0 531.2 510.0 535.5C510.0 539.8 510.5 542.1 511.5 543.0C512.6 543.9 513.0 546.5 513.0 553.5C513.0 560.5 513.4 563.1 514.5 564.0C515.8 565.1 516.0 570.5 516.0 601.5C516.0 632.5 515.8 637.9 514.5 639.0C513.4 639.9 513.0 642.3 513.0 648.0C513.0 653.7 512.6 656.1 511.5 657.0C510.6 657.8 510.0 660.0 510.0 663.0C510.0 666.0 509.4 668.2 508.5 669.0C507.7 669.7 507.0 671.7 507.0 673.5C507.0 675.3 506.3 677.3 505.5 678.0C504.7 678.7 504.0 680.7 504.0 682.5C504.0 684.3 503.3 686.3 502.5 687.0C501.7 687.7 501.0 689.7 501.0 691.4C501.0 693.7 500.1 695.5 498.0 697.5C496.4 699.1 495.0 701.1 495.0 702.1C495.0 703.0 494.3 704.3 493.5 705.0C492.7 705.7 492.0 707.1 492.0 708.2C492.0 709.2 491.3 710.3 490.5 710.6C489.7 711.0 489.0 712.2 489.0 713.4C489.0 714.6 487.1 717.5 484.5 720.0C482.0 722.6 480.1 725.5 480.0 726.8C480.0 728.1 479.4 729.0 478.5 729.0C477.5 729.0 477.0 728.0 477.0 726.1ZM651.0 700.5C650.1 699.5 647.8 699.0 643.5 699.0C639.2 699.0 636.9 698.5 636.0 697.5C635.3 696.7 633.3 696.0 631.5 696.0C629.7 696.0 627.7 695.3 627.0 694.5C626.3 693.7 624.3 693.0 622.5 693.0C620.7 693.0 618.7 692.3 618.0 691.5C617.3 690.7 616.0 690.0 615.0 690.0C614.0 690.0 612.7 689.3 612.0 688.5C611.3 687.7 610.0 687.0 609.1 687.0C608.1 687.0 606.1 685.6 604.5 684.0C602.9 682.4 600.9 681.0 599.9 681.0C599.0 681.0 597.7 680.4 597.0 679.6C596.4 678.8 595.0 678.0 594.0 677.8C592.0 677.5 573.0 659.4 573.0 657.9C573.0 655.1 578.1 657.6 583.5 663.0C586.8 666.3 590.2 669.0 591.0 669.0C591.9 669.0 593.9 670.4 595.5 672.0C597.1 673.6 599.1 675.0 600.1 675.0C601.0 675.0 602.3 675.7 603.0 676.5C603.7 677.3 605.0 678.0 606.0 678.0C607.0 678.0 608.3 678.7 609.0 679.5C609.7 680.3 611.0 681.0 612.0 681.0C613.0 681.0 614.3 681.7 615.0 682.5C615.7 683.3 617.0 684.0 618.0 684.0C619.0 684.0 620.3 684.7 621.0 685.5C621.7 686.3 623.7 687.0 625.5 687.0C627.3 687.0 629.3 687.7 630.0 688.5C630.9 689.5 633.2 690.0 637.7 690.0C642.4 690.0 644.2 690.4 644.6 691.5C645.4 693.4 647.6 693.4 648.4 691.5C648.8 690.3 651.9 690.0 664.7 689.8L680.5 689.5L680.5 687.0C680.5 685.3 679.9 684.4 678.5 684.2C675.5 683.6 671.9 679.8 672.2 677.5C672.6 675.0 676.2 674.3 678.0 676.5C678.9 677.5 681.1 678.0 685.5 678.0C689.8 678.0 692.1 678.5 693.0 679.5C694.0 680.7 696.7 681.0 705.0 681.0C713.3 681.0 716.0 681.3 717.0 682.5C718.6 684.4 721.4 684.4 723.0 682.4C723.9 681.4 725.6 681.0 727.9 681.2C731.0 681.5 731.5 681.9 731.5 684.0C731.5 685.8 730.9 686.6 729.3 686.8C728.1 687.0 726.6 687.8 726.0 688.6C725.3 689.4 724.0 690.0 723.0 690.0C722.0 690.0 720.7 690.7 720.0 691.5C719.3 692.3 717.3 693.0 715.5 693.0C713.7 693.0 711.7 693.7 711.0 694.5C710.3 695.3 708.3 696.0 706.5 696.0C704.7 696.0 702.7 696.7 702.0 697.5C701.1 698.6 698.5 699.0 691.5 699.0C684.5 699.0 681.9 699.4 681.0 700.5C680.0 701.7 677.0 702.0 666.0 702.0C655.0 702.0 652.0 701.7 651.0 700.5ZM654.0 652.5C653.1 651.5 650.8 651.0 646.5 651.0C642.2 651.0 639.9 650.5 639.0 649.5C638.3 648.7 636.3 648.0 634.5 648.0C632.7 648.0 630.7 647.3 630.0 646.5C629.3 645.7 628.0 645.0 627.0 645.0C626.0 645.0 624.7 644.3 624.0 643.5C623.3 642.7 621.3 642.0 619.5 642.0C617.7 642.0 615.7 641.3 615.0 640.5C614.3 639.7 613.0 639.0 612.0 639.0C611.0 639.0 609.7 638.3 609.0 637.5C608.3 636.7 607.0 636.0 606.0 636.0C605.0 636.0 603.7 635.3 603.0 634.5C602.3 633.7 601.0 633.0 600.0 633.0C599.0 633.0 597.7 632.3 597.0 631.5C596.3 630.7 595.0 630.0 594.1 630.0C593.1 630.0 591.1 628.6 589.5 627.0C587.9 625.4 585.9 624.0 584.9 624.0C584.0 624.0 582.7 623.3 582.0 622.5C581.3 621.7 580.0 621.0 579.0 621.0C578.0 621.0 575.4 619.0 573.1 616.5C570.3 613.5 568.1 612.0 566.5 612.0C564.9 612.0 564.0 611.4 564.0 610.5C564.0 609.5 565.0 609.0 567.0 609.0C569.0 609.0 570.0 609.5 570.0 610.5C570.0 611.4 570.9 612.0 572.3 612.0C573.6 612.0 575.9 613.4 577.5 615.0C579.1 616.6 581.1 618.0 582.1 618.0C583.0 618.0 584.3 618.7 585.0 619.5C585.7 620.3 587.0 621.0 588.0 621.0C589.0 621.0 590.3 621.7 591.0 622.5C591.7 623.3 593.0 624.0 593.9 624.0C594.9 624.0 596.9 625.4 598.5 627.0C600.5 629.1 602.3 630.0 604.6 630.0C606.3 630.0 608.3 630.7 609.0 631.5C609.7 632.3 611.7 633.0 613.5 633.0C615.3 633.0 617.3 633.7 618.0 634.5C618.7 635.3 620.0 636.0 621.0 636.0C622.0 636.0 623.3 636.7 624.0 637.5C624.8 638.4 627.0 639.0 630.0 639.0C633.0 639.0 635.2 639.6 636.0 640.5C636.8 641.4 639.0 642.0 642.0 642.0C645.0 642.0 647.2 642.6 648.0 643.5C649.0 644.7 652.3 645.0 666.0 645.0C679.7 645.0 683.0 644.7 684.0 643.5C684.9 642.4 687.3 642.0 693.0 642.0C698.7 642.0 701.1 641.6 702.0 640.5C702.7 639.7 704.0 639.0 705.0 639.0C706.0 639.0 707.3 638.4 708.0 637.6C708.6 636.8 710.1 636.0 711.3 635.8C714.3 635.4 714.4 630.8 711.4 630.0C708.9 629.4 702.0 623.5 702.0 622.0C702.0 620.3 715.5 620.7 717.0 622.5C718.0 623.7 721.0 624.0 732.0 624.0C743.0 624.0 746.0 623.7 747.0 622.5C747.9 621.4 750.5 621.0 757.5 621.0C764.5 621.0 767.1 620.6 768.0 619.5C769.5 617.7 780.0 617.4 780.0 619.1C780.0 620.6 775.8 623.9 773.9 624.0C773.1 624.0 771.1 625.4 769.5 627.0C767.9 628.6 765.9 630.0 765.0 630.0C764.1 630.0 762.1 631.4 760.5 633.0C758.9 634.6 756.9 636.0 755.9 636.0C755.0 636.0 753.7 636.7 753.0 637.5C752.3 638.3 751.0 639.0 750.0 639.0C749.0 639.0 747.7 639.7 747.0 640.5C746.3 641.3 744.3 642.0 742.5 642.0C740.7 642.0 738.7 642.7 738.0 643.5C737.3 644.3 736.0 645.0 735.0 645.0C734.0 645.0 732.7 645.7 732.0 646.5C731.2 647.4 729.0 648.0 726.0 648.0C723.0 648.0 720.8 648.6 720.0 649.5C719.1 650.5 716.8 651.0 712.5 651.0C708.2 651.0 705.9 651.5 705.0 652.5C704.0 653.8 699.8 654.0 679.5 654.0C659.2 654.0 655.0 653.8 654.0 652.5ZM639.0 598.5C638.1 597.5 635.8 597.0 631.5 597.0C627.2 597.0 624.9 596.5 624.0 595.5C623.2 594.6 621.0 594.0 618.0 594.0C615.0 594.0 612.8 593.4 612.0 592.5C611.2 591.6 609.0 591.0 606.0 591.0C603.0 591.0 600.8 590.4 600.0 589.5C599.3 588.7 598.0 588.0 597.0 588.0C596.0 588.0 594.7 587.3 594.0 586.5C593.3 585.7 591.3 585.0 589.5 585.0C587.7 585.0 585.7 584.3 585.0 583.5C584.3 582.7 582.3 582.0 580.6 582.0C578.3 582.0 576.5 581.1 574.5 579.0C572.9 577.4 570.6 576.0 569.3 576.0C567.9 576.0 567.0 575.4 567.0 574.5C567.0 573.6 566.1 573.0 564.8 573.0C562.3 572.9 558.0 569.8 558.0 568.1C558.0 566.5 560.7 566.8 561.4 568.5C561.7 569.3 563.1 570.0 564.5 570.0C566.1 570.0 567.0 570.6 567.0 571.5C567.0 572.6 568.1 573.0 570.9 573.0C573.1 573.0 575.3 573.6 576.0 574.5C576.7 575.3 578.0 576.0 579.0 576.0C580.0 576.0 581.3 576.7 582.0 577.5C582.7 578.3 584.7 579.0 586.5 579.0C588.3 579.0 590.3 579.7 591.0 580.5C591.7 581.3 593.7 582.0 595.5 582.0C597.3 582.0 599.3 582.7 600.0 583.5C600.8 584.4 603.0 585.0 606.0 585.0C609.0 585.0 611.2 585.6 612.0 586.5C612.9 587.5 615.2 588.0 619.5 588.0C623.8 588.0 626.1 588.5 627.0 589.5C628.0 590.8 632.3 591.0 654.0 591.0C675.7 591.0 680.0 590.8 681.0 589.5C681.9 588.5 684.2 588.0 688.5 588.0C692.8 588.0 695.1 587.5 696.0 586.5C696.7 585.7 698.7 585.0 700.5 585.0C702.3 585.0 704.3 584.3 705.0 583.5C705.7 582.7 707.0 582.0 708.0 582.0C709.0 582.0 710.3 581.3 711.0 580.5C711.7 579.7 713.7 579.0 715.4 579.0C717.7 579.0 719.5 578.1 721.5 576.0C723.1 574.4 725.1 573.0 725.9 573.0C727.8 572.9 732.0 569.6 732.0 568.1C732.0 567.5 730.9 567.0 729.6 567.0C728.3 567.0 726.7 566.3 726.0 565.5C725.3 564.7 723.3 564.0 721.5 564.0C719.7 564.0 717.7 563.3 717.0 562.5C716.3 561.7 714.7 561.0 713.4 561.0C711.9 561.0 711.0 560.4 711.0 559.5C711.0 558.3 712.6 558.0 719.4 558.0C725.6 558.0 728.1 557.6 729.0 556.5C729.9 555.5 732.2 555.0 736.6 555.0C741.5 555.0 743.1 554.6 743.9 553.3C744.8 551.7 745.0 551.7 747.0 553.5C749.0 555.3 749.2 555.3 750.1 553.7C750.9 552.4 752.5 552.0 757.4 552.0C761.8 552.0 764.1 551.5 765.0 550.5C765.7 549.7 767.7 549.0 769.5 549.0C771.3 549.0 773.3 548.3 774.0 547.5C774.7 546.7 776.7 546.0 778.5 546.0C780.3 546.0 782.3 545.3 783.0 544.5C783.7 543.7 785.0 543.0 786.0 543.0C787.0 543.0 788.3 542.3 789.0 541.4C789.9 540.4 791.6 540.0 793.9 540.2C797.0 540.5 797.5 540.9 797.5 543.0C797.5 544.7 796.9 545.6 795.5 545.8C792.5 546.4 789.0 550.1 789.0 552.7C789.0 554.4 788.4 555.0 786.7 555.0C785.3 555.0 782.3 557.2 778.5 561.0C775.2 564.3 771.9 567.0 771.0 567.0C770.1 567.0 767.4 569.0 765.0 571.5C762.6 574.0 759.8 576.0 758.9 576.0C758.0 576.0 756.7 576.7 756.0 577.5C755.3 578.3 754.0 579.0 753.0 579.0C752.0 579.0 750.7 579.7 750.0 580.5C749.3 581.3 748.0 582.0 747.0 582.0C746.0 582.0 744.7 582.7 744.0 583.5C743.3 584.3 742.0 585.0 741.0 585.0C740.0 585.0 738.7 585.7 738.0 586.5C737.3 587.3 736.0 588.0 735.0 588.0C734.0 588.0 732.7 588.7 732.0 589.5C731.3 590.3 729.3 591.0 727.5 591.0C725.7 591.0 723.7 591.7 723.0 592.5C722.2 593.4 720.0 594.0 717.0 594.0C714.0 594.0 711.8 594.6 711.0 595.5C710.1 596.5 707.8 597.0 703.5 597.0C699.2 597.0 696.9 597.5 696.0 598.5C694.9 599.8 690.5 600.0 667.5 600.0C644.5 600.0 640.1 599.8 639.0 598.5ZM606.0 538.5C605.1 537.4 602.7 537.0 597.0 537.0C591.3 537.0 588.9 536.6 588.0 535.5C587.1 534.4 584.7 534.0 579.0 534.0C573.3 534.0 570.9 533.6 570.0 532.5C569.3 531.6 567.1 531.0 564.9 531.0C562.1 531.0 561.0 530.6 561.0 529.5C561.0 528.4 562.3 528.0 566.4 528.0C569.9 528.0 572.2 528.5 573.0 529.5C573.9 530.6 576.3 531.0 582.0 531.0C587.7 531.0 590.1 531.4 591.0 532.5C592.1 533.8 597.8 534.0 631.5 534.0C665.2 534.0 670.9 533.8 672.0 532.5C672.9 531.5 675.2 531.0 679.5 531.0C683.8 531.0 686.1 530.5 687.0 529.5C687.8 528.6 690.0 528.0 693.0 528.0C696.0 528.0 698.2 527.4 699.0 526.5C699.7 525.7 701.7 525.0 703.5 525.0C705.3 525.0 707.3 524.3 708.0 523.5C708.7 522.7 710.0 522.0 711.0 522.0C712.0 522.0 713.3 521.3 714.0 520.5C714.7 519.7 716.7 519.0 718.5 519.0C720.3 519.0 722.3 518.3 723.0 517.5C723.7 516.7 725.0 516.0 726.0 516.0C727.0 516.0 728.3 515.3 729.0 514.5C729.7 513.7 731.0 513.0 731.9 513.0C732.9 513.0 734.9 511.6 736.5 510.0C738.1 508.4 740.1 507.0 740.9 507.0C742.6 507.0 756.0 494.4 756.0 492.9C756.0 492.4 754.9 492.0 753.6 492.0C752.3 492.0 750.7 491.3 750.0 490.5C749.3 489.6 746.5 489.0 742.2 488.8C735.8 488.5 735.5 488.4 735.5 486.0C735.5 483.6 735.8 483.5 742.2 483.2C746.5 483.0 749.3 482.4 750.0 481.5C750.7 480.7 752.7 480.0 754.5 480.0C756.3 480.0 758.3 479.3 759.0 478.5C759.7 477.7 761.7 477.0 763.5 477.0C765.3 477.0 767.3 476.3 768.0 475.5C768.7 474.7 770.7 474.0 772.5 474.0C774.3 474.0 776.3 473.3 777.0 472.5C777.7 471.7 779.0 471.0 780.0 471.0C781.0 471.0 782.3 470.3 783.0 469.5C783.7 468.7 785.7 468.0 787.5 468.0C789.3 468.0 791.3 467.3 792.0 466.5C792.7 465.7 794.0 465.0 795.0 465.0C796.0 465.0 797.3 464.3 798.0 463.5C798.7 462.7 800.0 462.0 801.0 462.0C802.0 462.0 803.3 461.3 804.0 460.5C804.7 459.7 806.0 459.0 807.0 459.0C808.0 459.0 809.3 458.3 810.0 457.5C810.7 456.7 812.0 456.0 812.9 456.0C813.9 456.0 815.9 454.6 817.5 453.0C820.5 449.9 825.0 448.9 825.0 451.4C825.0 452.2 824.3 453.0 823.5 453.4C822.7 453.7 822.0 455.1 822.0 456.5C822.0 458.1 821.4 459.0 820.5 459.0C819.6 459.0 819.0 459.9 819.0 461.3C819.0 462.7 816.8 465.7 813.0 469.5C809.2 473.3 807.0 476.3 807.0 477.7C807.0 479.6 806.5 480.0 804.0 480.0C801.5 480.0 801.0 480.4 801.0 482.3C801.0 484.9 791.4 495.0 788.9 495.0C788.1 495.0 784.8 497.7 781.5 501.0C778.2 504.3 774.8 507.0 774.0 507.0C773.1 507.0 771.1 508.4 769.5 510.0C767.9 511.6 765.9 513.0 764.9 513.0C764.0 513.0 762.7 513.7 762.0 514.5C761.3 515.3 760.0 516.0 759.0 516.0C758.0 516.0 756.7 516.7 756.0 517.5C755.3 518.3 754.0 519.0 753.0 519.0C752.0 519.0 750.7 519.7 750.0 520.5C749.3 521.3 748.0 522.0 747.0 522.0C746.0 522.0 744.7 522.7 744.0 523.5C743.3 524.3 741.3 525.0 739.5 525.0C737.7 525.0 735.7 525.7 735.0 526.5C734.3 527.3 733.0 528.0 732.0 528.0C731.0 528.0 729.7 528.7 729.0 529.5C728.2 530.4 726.0 531.0 723.0 531.0C720.0 531.0 717.8 531.6 717.0 532.5C716.2 533.4 714.0 534.0 711.0 534.0C708.0 534.0 705.8 534.6 705.0 535.5C704.1 536.6 701.7 537.0 696.0 537.0C690.3 537.0 687.9 537.4 687.0 538.5C685.9 539.8 680.2 540.0 646.5 540.0C612.8 540.0 607.1 539.8 606.0 538.5ZM564.0 505.5C564.0 504.4 565.3 504.0 569.4 504.0C572.9 504.0 575.2 503.5 576.0 502.5C576.9 501.4 579.5 501.0 586.5 501.0C593.5 501.0 596.1 500.6 597.0 499.5C597.9 498.5 600.2 498.0 604.5 498.0C608.8 498.0 611.1 497.5 612.0 496.5C612.9 495.5 615.2 495.0 619.5 495.0C623.8 495.0 626.1 494.5 627.0 493.5C627.8 492.6 630.0 492.0 633.0 492.0C636.0 492.0 638.2 491.4 639.0 490.5C639.8 489.6 642.0 489.0 645.0 489.0C648.0 489.0 650.2 488.4 651.0 487.5C651.7 486.7 653.7 486.0 655.5 486.0C657.3 486.0 659.3 485.3 660.0 484.5C660.7 483.7 662.7 483.0 664.5 483.0C666.3 483.0 668.3 482.3 669.0 481.5C669.7 480.7 671.0 480.0 672.0 480.0C673.0 480.0 674.3 479.3 675.0 478.5C675.7 477.7 677.7 477.0 679.5 477.0C681.3 477.0 683.3 476.3 684.0 475.5C684.7 474.7 686.0 474.0 687.0 474.0C688.0 474.0 689.3 473.3 690.0 472.5C690.7 471.7 692.0 471.0 693.0 471.0C694.0 471.0 695.3 470.3 696.0 469.5C696.7 468.7 698.0 468.0 699.0 468.0C700.0 468.0 701.3 467.3 702.0 466.5C702.7 465.7 704.0 465.0 704.9 465.0C705.8 465.0 708.6 463.0 711.0 460.5C713.4 458.0 716.1 456.0 717.0 456.0C717.9 456.0 720.6 454.0 723.0 451.5C725.4 449.0 728.1 447.0 729.0 447.0C731.0 447.0 753.0 424.9 753.0 422.9C753.0 422.1 754.4 420.1 756.0 418.5C757.6 416.9 759.0 414.9 759.0 413.9C759.0 413.0 759.7 411.7 760.5 411.0C761.3 410.3 762.0 408.9 762.0 407.8C762.0 406.8 762.7 405.7 763.5 405.4C764.3 405.0 765.0 404.2 765.0 403.4C765.0 401.2 742.8 401.4 741.0 403.6C740.1 404.6 738.4 405.0 736.1 404.8C733.0 404.5 732.5 404.1 732.5 402.0C732.5 400.2 733.1 399.4 734.7 399.2C735.9 399.0 737.4 398.2 738.0 397.4C738.7 396.6 740.0 396.0 741.0 396.0C742.0 396.0 743.3 395.3 744.0 394.5C744.7 393.7 746.0 393.0 747.0 393.0C748.0 393.0 749.3 392.3 750.0 391.5C750.7 390.7 752.0 390.0 752.9 390.0C753.9 390.0 755.9 388.6 757.5 387.0C759.1 385.4 761.1 384.0 762.0 384.0C762.9 384.0 764.9 382.6 766.5 381.0C768.1 379.4 770.1 378.0 771.0 378.0C771.8 378.0 775.2 375.3 778.5 372.0C781.8 368.7 785.1 366.0 786.0 366.0C788.0 366.0 804.0 349.9 804.0 348.0C804.0 345.5 817.2 333.0 819.8 333.0C822.3 333.0 822.8 335.5 820.5 336.4C819.4 336.8 819.0 338.6 819.0 343.3C819.0 347.8 818.5 350.1 817.5 351.0C816.7 351.7 816.0 353.7 816.0 355.5C816.0 357.3 815.3 359.3 814.5 360.0C813.6 360.8 813.0 363.0 813.0 366.0C813.0 369.0 812.4 371.2 811.5 372.0C810.7 372.7 810.0 374.0 810.0 375.0C810.0 376.0 809.3 377.3 808.5 378.0C807.7 378.7 807.0 380.0 807.0 381.0C807.0 382.0 806.3 383.3 805.5 384.0C804.7 384.7 804.0 386.0 804.0 387.0C804.0 388.0 803.3 389.3 802.5 390.0C801.7 390.7 801.0 392.0 801.0 392.9C801.0 393.9 799.6 395.9 798.0 397.5C796.4 399.1 795.0 401.1 795.0 402.1C795.0 403.0 794.3 404.3 793.5 405.0C792.7 405.7 792.0 407.0 792.0 407.9C792.0 408.8 788.0 413.6 783.0 418.5C776.9 424.5 774.0 428.2 774.0 429.7C774.0 431.4 773.4 432.0 771.7 432.0C770.2 432.0 766.5 434.9 760.5 441.0C755.6 445.9 750.8 450.0 750.0 450.0C749.1 450.0 746.4 452.0 744.0 454.5C741.6 457.0 738.8 459.0 737.9 459.0C737.0 459.0 735.7 459.7 735.0 460.5C734.3 461.3 733.0 462.0 732.1 462.0C731.1 462.0 729.1 463.4 727.5 465.0C725.9 466.6 723.9 468.0 722.9 468.0C722.0 468.0 720.7 468.7 720.0 469.5C719.3 470.3 718.0 471.0 717.0 471.0C716.0 471.0 714.7 471.7 714.0 472.5C713.3 473.3 712.0 474.0 711.0 474.0C710.0 474.0 708.7 474.7 708.0 475.5C707.3 476.3 706.0 477.0 705.0 477.0C704.0 477.0 702.7 477.7 702.0 478.5C701.3 479.3 699.3 480.0 697.5 480.0C695.7 480.0 693.7 480.7 693.0 481.5C692.3 482.3 691.0 483.0 690.0 483.0C689.0 483.0 687.7 483.7 687.0 484.5C686.3 485.3 684.3 486.0 682.5 486.0C680.7 486.0 678.7 486.7 678.0 487.5C677.3 488.3 675.3 489.0 673.5 489.0C671.7 489.0 669.7 489.7 669.0 490.5C668.2 491.4 666.0 492.0 663.0 492.0C660.0 492.0 657.8 492.6 657.0 493.5C656.3 494.3 654.3 495.0 652.5 495.0C650.7 495.0 648.7 495.7 648.0 496.5C647.1 497.6 644.7 498.0 639.0 498.0C633.3 498.0 630.9 498.4 630.0 499.5C629.1 500.6 626.5 501.0 619.5 501.0C612.5 501.0 609.9 501.4 609.0 502.5C608.0 503.7 605.2 504.0 595.5 504.0C585.8 504.0 583.0 504.3 582.0 505.5C581.1 506.6 578.6 507.0 572.4 507.0C565.6 507.0 564.0 506.7 564.0 505.5ZM552.0 472.5C552.0 471.5 553.0 471.0 555.0 471.0C557.0 471.0 558.0 470.5 558.0 469.5C558.0 468.6 558.9 468.0 560.4 468.0C561.7 468.0 563.3 467.3 564.0 466.5C564.7 465.7 566.7 465.0 568.5 465.0C570.3 465.0 572.3 464.3 573.0 463.5C573.7 462.7 575.0 462.0 576.0 462.0C577.0 462.0 578.3 461.3 579.0 460.5C579.7 459.7 581.0 459.0 582.0 459.0C583.0 459.0 584.3 458.3 585.0 457.5C585.7 456.7 587.7 456.0 589.5 456.0C591.3 456.0 593.3 455.3 594.0 454.5C594.7 453.7 596.0 453.0 597.0 453.0C598.0 453.0 599.3 452.3 600.0 451.5C600.7 450.7 602.0 450.0 603.0 450.0C604.0 450.0 605.3 449.3 606.0 448.5C606.7 447.7 608.0 447.0 609.0 447.0C610.0 447.0 611.3 446.3 612.0 445.5C612.7 444.7 614.0 444.0 615.0 444.0C616.0 444.0 617.3 443.3 618.0 442.5C618.7 441.7 620.0 441.0 621.0 441.0C622.0 441.0 623.3 440.3 624.0 439.5C624.7 438.7 626.0 438.0 627.0 438.0C628.0 438.0 629.3 437.3 630.0 436.5C630.7 435.7 632.0 435.0 633.0 435.0C634.0 435.0 635.3 434.3 636.0 433.5C636.7 432.7 638.0 432.0 638.9 432.0C639.9 432.0 641.9 430.6 643.5 429.0C645.1 427.4 647.1 426.0 648.1 426.0C649.0 426.0 650.3 425.3 651.0 424.5C651.7 423.7 653.0 423.0 653.9 423.0C654.9 423.0 656.9 421.6 658.5 420.0C660.1 418.4 662.1 417.0 663.0 417.0C663.9 417.0 666.6 415.0 669.0 412.5C671.4 410.0 674.1 408.0 675.0 408.0C675.9 408.0 678.6 406.0 681.0 403.5C683.4 401.0 686.1 399.0 687.0 399.0C687.9 399.0 690.6 397.0 693.0 394.5C695.4 392.0 698.1 390.0 699.0 390.0C701.5 390.0 726.0 364.8 726.0 362.2C726.0 360.4 726.6 360.0 729.0 360.0C731.5 360.0 732.0 359.6 732.0 357.7C732.0 356.4 733.4 354.1 735.0 352.5C736.6 350.9 738.0 348.9 738.0 348.0C738.0 347.1 739.4 345.1 741.0 343.5C742.6 341.9 744.0 339.9 744.0 339.0C744.0 338.1 745.4 336.1 747.0 334.5C748.6 332.9 750.0 330.9 750.0 329.9C750.0 329.0 750.7 327.7 751.5 327.0C752.3 326.3 753.0 325.0 753.0 324.0C753.0 323.0 753.7 321.7 754.5 321.0C755.3 320.3 756.0 319.0 756.0 318.1C756.0 317.1 757.4 315.1 759.0 313.5C761.5 311.1 762.0 309.8 762.0 305.9C762.0 303.0 762.6 300.8 763.5 300.0C764.3 299.3 765.0 298.0 765.0 297.0C765.0 296.0 765.7 294.7 766.5 294.0C767.5 293.1 768.0 290.8 768.0 286.5C768.0 282.2 768.5 279.9 769.5 279.0C770.5 278.2 771.0 275.9 771.0 272.5C771.0 268.6 771.4 267.1 772.6 266.6C773.5 266.3 774.0 265.1 773.8 263.8C773.4 260.9 764.2 259.8 762.0 262.5C761.3 263.3 760.0 264.0 759.0 264.0C758.0 264.0 756.7 264.7 756.0 265.5C755.3 266.3 754.0 267.0 753.0 267.0C752.0 267.0 750.7 267.7 750.0 268.5C749.3 269.3 747.3 270.0 745.5 270.0C743.7 270.0 741.7 270.7 741.0 271.5C740.3 272.3 738.3 273.0 736.5 273.0C734.7 273.0 732.7 273.7 732.0 274.5C729.9 277.0 726.6 276.0 726.2 272.8C725.9 270.4 726.2 270.0 728.2 270.0C730.9 270.0 741.0 260.4 741.0 257.9C741.0 257.1 745.0 252.4 750.0 247.5C755.0 242.6 759.0 237.8 759.0 237.0C759.0 236.1 761.0 233.4 763.5 231.0C766.0 228.6 768.0 225.9 768.0 225.0C768.0 224.1 769.4 222.1 771.0 220.5C772.6 218.9 774.0 216.9 774.0 216.0C774.0 215.1 775.4 213.1 777.0 211.5C778.6 209.9 780.0 207.9 780.0 206.9C780.0 206.0 780.7 204.7 781.5 204.0C782.3 203.3 783.0 202.0 783.0 201.0C783.0 200.0 783.7 198.7 784.5 198.0C785.3 197.3 786.0 196.0 786.0 195.0C786.0 194.0 786.7 192.7 787.5 192.0C788.3 191.3 789.0 190.0 789.0 189.0C789.0 188.0 789.7 186.7 790.5 186.0C791.3 185.3 792.0 184.0 792.0 183.0C792.0 182.0 792.7 180.7 793.5 180.0C794.3 179.3 795.0 178.0 795.0 177.0C795.0 176.0 795.7 174.7 796.5 174.0C797.3 173.3 798.0 172.0 798.0 171.0C798.0 170.0 798.7 168.7 799.5 168.0C800.3 167.3 801.0 166.0 801.0 165.0C801.0 164.0 801.7 162.7 802.5 162.0C803.3 161.3 804.0 159.3 804.0 157.5C804.0 155.7 804.7 153.7 805.5 153.0C806.3 152.3 807.0 150.7 807.0 149.4C807.0 147.9 807.6 147.0 808.5 147.0C809.6 147.0 810.0 148.2 810.0 151.4C810.0 154.4 810.5 156.0 811.5 156.4C812.7 156.8 813.0 158.9 813.0 166.3C813.0 173.5 813.4 176.1 814.5 177.0C816.7 178.9 816.7 223.1 814.5 225.0C813.4 225.9 813.0 228.5 813.0 235.5C813.0 242.5 812.6 245.1 811.5 246.0C810.6 246.8 810.0 249.0 810.0 252.0C810.0 255.0 809.4 257.2 808.5 258.0C807.6 258.8 807.0 261.0 807.0 264.0C807.0 267.0 806.4 269.2 805.5 270.0C804.7 270.7 804.0 272.7 804.0 274.5C804.0 276.3 803.3 278.3 802.5 279.0C801.7 279.7 801.0 281.0 801.0 282.0C801.0 283.0 800.3 284.3 799.5 285.0C798.7 285.7 798.0 287.7 798.0 289.5C798.0 291.3 797.3 293.3 796.5 294.0C795.7 294.7 795.0 296.0 795.0 297.0C795.0 298.0 794.3 299.3 793.5 300.0C792.7 300.7 792.0 302.0 792.0 303.0C792.0 304.0 791.3 305.3 790.5 306.0C789.7 306.7 789.0 308.0 789.0 309.0C789.0 310.0 788.3 311.3 787.5 312.0C786.7 312.7 786.0 314.0 786.0 314.9C786.0 315.9 784.6 317.9 783.0 319.5C781.4 321.1 780.0 323.1 780.0 324.0C780.0 324.9 778.6 326.9 777.0 328.5C775.4 330.1 774.0 332.1 774.0 333.0C774.0 333.9 772.6 335.9 771.0 337.5C769.4 339.1 768.0 341.1 768.0 342.0C768.0 342.8 764.0 347.6 759.0 352.5C752.9 358.5 750.0 362.2 750.0 363.7C750.0 365.4 749.4 366.0 747.7 366.0C746.2 366.0 742.1 369.3 735.0 376.5C727.9 383.7 723.8 387.0 722.3 387.0C720.4 387.0 720.0 387.5 720.0 390.0C720.0 392.5 719.6 393.0 717.7 393.0C716.4 393.0 714.1 394.4 712.5 396.0C710.9 397.6 708.6 399.0 707.3 399.0C705.4 399.0 705.0 399.5 705.0 402.0C705.0 404.5 704.6 405.0 702.7 405.0C701.4 405.0 699.1 406.4 697.5 408.0C695.9 409.6 693.9 411.0 692.9 411.0C692.0 411.0 690.7 411.7 690.0 412.5C689.3 413.3 688.0 414.0 687.1 414.0C686.1 414.0 684.1 415.4 682.5 417.0C680.9 418.6 678.9 420.0 678.0 420.0C677.1 420.0 675.1 421.4 673.5 423.0C671.9 424.6 669.9 426.0 668.9 426.0C668.0 426.0 666.7 426.7 666.0 427.5C665.3 428.3 664.0 429.0 663.1 429.0C662.1 429.0 660.1 430.4 658.5 432.0C656.5 434.1 654.7 435.0 652.4 435.0C650.7 435.0 648.7 435.7 648.0 436.5C647.3 437.3 646.0 438.0 645.0 438.0C644.0 438.0 642.7 438.7 642.0 439.5C641.3 440.3 640.0 441.0 639.0 441.0C638.0 441.0 636.7 441.7 636.0 442.5C635.3 443.3 634.0 444.0 633.0 444.0C632.0 444.0 630.7 444.7 630.0 445.5C629.3 446.3 628.0 447.0 627.0 447.0C626.0 447.0 624.7 447.7 624.0 448.5C623.3 449.3 622.0 450.0 621.0 450.0C620.0 450.0 618.7 450.7 618.0 451.5C617.3 452.3 615.3 453.0 613.5 453.0C611.7 453.0 609.7 453.7 609.0 454.5C608.3 455.3 606.3 456.0 604.5 456.0C602.7 456.0 600.7 456.7 600.0 457.5C599.3 458.3 598.0 459.0 597.0 459.0C596.0 459.0 594.7 459.7 594.0 460.5C593.3 461.3 592.0 462.0 591.0 462.0C590.0 462.0 588.7 462.7 588.0 463.5C587.2 464.4 585.0 465.0 582.0 465.0C579.0 465.0 576.8 465.6 576.0 466.5C575.3 467.3 573.3 468.0 571.5 468.0C569.7 468.0 567.7 468.7 567.0 469.5C566.3 470.3 564.3 471.0 562.5 471.0C560.7 471.0 558.7 471.7 558.0 472.5C557.3 473.3 555.7 474.0 554.4 474.0C552.9 474.0 552.0 473.4 552.0 472.5Z"/></g></svg>